<svg xmlns="http://www.w3.org/2000/svg" width="19.741" height="19.741" viewBox="0 0 19.741 19.741">
  <g id="Icon_ionic-ios-add-circle-outline" data-name="Icon ionic-ios-add-circle-outline" transform="translate(-3.375 -3.375)">
    <path id="Path_1" data-name="Path 1" d="M19.86,14.806H16.325V11.271a.759.759,0,1,0-1.519,0v3.535H11.271a.727.727,0,0,0-.759.759.735.735,0,0,0,.759.759h3.535V19.86a.735.735,0,0,0,.759.759.755.755,0,0,0,.759-.759V16.325H19.86a.759.759,0,1,0,0-1.519Z" transform="translate(-2.32 -2.32)" fill="#2b2b2b"/>
    <path id="Path_2" data-name="Path 2" d="M13.245,4.7A8.538,8.538,0,1,1,7.2,7.2a8.485,8.485,0,0,1,6.041-2.5m0-1.329a9.87,9.87,0,1,0,9.87,9.87,9.869,9.869,0,0,0-9.87-9.87Z" fill="#2b2b2b"/>
  </g>
</svg>
