<svg xmlns="http://www.w3.org/2000/svg" width="31.972" height="31.972" viewBox="0 0 31.972 31.972">
  <path id="info_FILL0_wght400_GRAD0_opsz48" d="M18.907,27.979h2.4V18.387h-2.4ZM19.986,15.43a1.313,1.313,0,0,0,.939-.36,1.211,1.211,0,0,0,.38-.919,1.343,1.343,0,0,0-.38-.959,1.3,1.3,0,0,0-1.878,0,1.343,1.343,0,0,0-.38.959,1.211,1.211,0,0,0,.38.919,1.313,1.313,0,0,0,.939.36Zm0,20.542a15.468,15.468,0,0,1-6.195-1.259,16.106,16.106,0,0,1-8.533-8.533,15.968,15.968,0,0,1,0-12.429A15.976,15.976,0,0,1,8.7,8.676a16.387,16.387,0,0,1,5.1-3.417,15.968,15.968,0,0,1,12.429,0,15.961,15.961,0,0,1,8.493,8.493,15.968,15.968,0,0,1,0,12.429,16.387,16.387,0,0,1-3.417,5.1,15.976,15.976,0,0,1-5.076,3.437A15.566,15.566,0,0,1,19.986,35.972Zm.04-2.4A13.029,13.029,0,0,0,29.618,29.6a13.175,13.175,0,0,0,3.957-9.652,13.062,13.062,0,0,0-3.957-9.592A13.109,13.109,0,0,0,19.986,6.4a13.128,13.128,0,0,0-9.612,3.957A13.075,13.075,0,0,0,6.4,19.986,13.1,13.1,0,0,0,10.374,29.6,13.141,13.141,0,0,0,20.026,33.574ZM19.986,19.986Z" transform="translate(-4 -4)" fill="#858585"/>
</svg>
